<?xml version="1.0" encoding="utf-8" standalone="no"?><!DOCTYPE svg PUBLIC "-//W3C//DTD SVG 20010904//EN" "http://www.w3.org/TR/2001/REC-SVG-20010904/DTD/svg10.dtd"><svg xmlns="http://www.w3.org/2000/svg" width="396" height="532" xmlns:xlink="http://www.w3.org/1999/xlink"><source><![CDATA[12345678910st=>start: Start:>http://alfred-sun.github.ioio=>inputoutput: verificationop=>operation: Your Operationcond=>condition: Yes or No?sub=>subroutine: Your Subroutinee=>end:>https://github.com/adrai/flowchart.jsst->io->op->condcond(yes)->econd(no)->sub->ioX]]></source><desc style="-webkit-tap-highlight-color: rgba(0, 0, 0, 0);">Created with Raphaël 2.1.0</desc><defs style="-webkit-tap-highlight-color: rgba(0, 0, 0, 0);"><path stroke-linecap="round" d="M5,0 0,2.5 5,5z" id="raphael-marker-block" style="-webkit-tap-highlight-color: rgba(0, 0, 0, 0);"></path><marker id="raphael-marker-endblock33" markerHeight="3" markerWidth="3" orient="auto" refX="1.5" refY="1.5" style="-webkit-tap-highlight-color: rgba(0, 0, 0, 0);"><use xmlns:xlink="http://www.w3.org/1999/xlink" xlink:href="#raphael-marker-block" transform="rotate(180 1.5 1.5) scale(0.6,0.6)" stroke-width="1.6667" fill="black" stroke="none" style="-webkit-tap-highlight-color: rgba(0, 0, 0, 0);"></use></marker></defs><a xmlns:xlink="http://www.w3.org/1999/xlink" xlink:href="http://alfred-sun.github.io" style="-webkit-tap-highlight-color: rgba(0, 0, 0, 0);"></a><a xmlns:xlink="http://www.w3.org/1999/xlink" xlink:href="http://alfred-sun.github.io" style="-webkit-tap-highlight-color: rgba(0, 0, 0, 0);"><rect x="0" y="0" width="50" height="36" r="20" rx="20" ry="20" fill="#ffffff" stroke="#000000" style="-webkit-tap-highlight-color: rgba(0, 0, 0, 0);" stroke-width="3" class="flowchart" id="st" transform="matrix(1,0,0,1,56.75,25.875)"></rect><text x="10" y="18" text-anchor="start" font="10px &quot;Arial&quot;" stroke="none" fill="#000000" style="-webkit-tap-highlight-color: rgba(0, 0, 0, 0); text-anchor: start; font-style: normal; font-variant: normal; font-weight: normal; font-stretch: normal; font-size: 14px; line-height: normal; font-family: Arial;" id="stt" class="flowchartt" font-size="14px" transform="matrix(1,0,0,1,56.75,25.875)"><tspan dy="5" style="-webkit-tap-highlight-color: rgba(0, 0, 0, 0);">Start</tspan></text></a><path fill="#ffffff" stroke="#000000" d="M10,18L0,36L108,36L128,0L20,0L10,18" stroke-width="3" id="io" class="flowchart" style="-webkit-tap-highlight-color: rgba(0, 0, 0, 0);" transform="matrix(1,0,0,1,17.75,137.75)"></path><text x="30" y="18" text-anchor="start" font="10px &quot;Arial&quot;" stroke="none" fill="#000000" style="-webkit-tap-highlight-color: rgba(0, 0, 0, 0); text-anchor: start; font-style: normal; font-variant: normal; font-weight: normal; font-stretch: normal; font-size: 14px; line-height: normal; font-family: Arial;" id="iot" class="flowchartt" font-size="14px" transform="matrix(1,0,0,1,17.75,137.75)"><tspan dy="5" style="-webkit-tap-highlight-color: rgba(0, 0, 0, 0);">verification</tspan></text><rect x="0" y="0" width="117" height="36" r="0" rx="0" ry="0" fill="#ffffff" stroke="#000000" style="-webkit-tap-highlight-color: rgba(0, 0, 0, 0);" stroke-width="3" class="flowchart" id="op" transform="matrix(1,0,0,1,23.25,249.625)"></rect><text x="10" y="18" text-anchor="start" font="10px &quot;Arial&quot;" stroke="none" fill="#000000" style="-webkit-tap-highlight-color: rgba(0, 0, 0, 0); text-anchor: start; font-style: normal; font-variant: normal; font-weight: normal; font-stretch: normal; font-size: 14px; line-height: normal; font-family: Arial;" id="opt" class="flowchartt" font-size="14px" transform="matrix(1,0,0,1,23.25,249.625)"><tspan dy="5" style="-webkit-tap-highlight-color: rgba(0, 0, 0, 0);">Your Operation</tspan></text><path fill="#ffffff" stroke="#000000" d="M37.875,18.9375L0,37.875L75.75,75.75L151.5,37.875L75.75,0L0,37.875" stroke-width="3" id="cond" class="flowchart" style="-webkit-tap-highlight-color: rgba(0, 0, 0, 0);" transform="matrix(1,0,0,1,6,341.625)"></path><text x="42.875" y="37.875" text-anchor="start" font="10px &quot;Arial&quot;" stroke="none" fill="#000000" style="-webkit-tap-highlight-color: rgba(0, 0, 0, 0); text-anchor: start; font-style: normal; font-variant: normal; font-weight: normal; font-stretch: normal; font-size: 14px; line-height: normal; font-family: Arial;" id="condt" class="flowchartt" font-size="14px" transform="matrix(1,0,0,1,6,341.625)"><tspan dy="5" style="-webkit-tap-highlight-color: rgba(0, 0, 0, 0);">Yes or No?</tspan></text><a xmlns:xlink="http://www.w3.org/1999/xlink" xlink:href="https://github.com/adrai/flowchart.js
" style="-webkit-tap-highlight-color: rgba(0, 0, 0, 0);"></a><a xmlns:xlink="http://www.w3.org/1999/xlink" xlink:href="https://github.com/adrai/flowchart.js
" style="-webkit-tap-highlight-color: rgba(0, 0, 0, 0);"><rect x="0" y="0" width="45" height="36" r="20" rx="20" ry="20" fill="#ffffff" stroke="#000000" style="-webkit-tap-highlight-color: rgba(0, 0, 0, 0);" stroke-width="3" class="flowchart" id="e" transform="matrix(1,0,0,1,59.25,493.25)"></rect><text x="10" y="18" text-anchor="start" font="10px &quot;Arial&quot;" stroke="none" fill="#000000" style="-webkit-tap-highlight-color: rgba(0, 0, 0, 0); text-anchor: start; font-style: normal; font-variant: normal; font-weight: normal; font-stretch: normal; font-size: 14px; line-height: normal; font-family: Arial;" id="et" class="flowchartt" font-size="14px" transform="matrix(1,0,0,1,59.25,493.25)"><tspan dy="5" style="-webkit-tap-highlight-color: rgba(0, 0, 0, 0);">End</tspan></text></a><rect x="0" y="0" width="143" height="36" r="0" rx="0" ry="0" fill="#ffffff" stroke="#000000" style="-webkit-tap-highlight-color: rgba(0, 0, 0, 0);" stroke-width="3" class="flowchart" id="sub" transform="matrix(1,0,0,1,217.75,361.5)"></rect><rect x="10" y="0" width="123" height="36" r="0" rx="0" ry="0" fill="#ffffff" stroke="#000000" style="-webkit-tap-highlight-color: rgba(0, 0, 0, 0);" stroke-width="3" id="subi" transform="matrix(1,0,0,1,217.75,361.5)"></rect><text x="20" y="18" text-anchor="start" font="10px &quot;Arial&quot;" stroke="none" fill="#000000" style="-webkit-tap-highlight-color: rgba(0, 0, 0, 0); text-anchor: start; font-style: normal; font-variant: normal; font-weight: normal; font-stretch: normal; font-size: 14px; line-height: normal; font-family: Arial;" id="subt" class="flowchartt" font-size="14px" transform="matrix(1,0,0,1,217.75,361.5)"><tspan dy="5" style="-webkit-tap-highlight-color: rgba(0, 0, 0, 0);">Your Subroutine</tspan></text><path fill="none" stroke="#000000" d="M81.75,61.875C81.75,61.875,81.75,116.9595317542553,81.75,133.25895863075857" stroke-width="3" marker-end="url(#raphael-marker-endblock33)" style="-webkit-tap-highlight-color: rgba(0, 0, 0, 0);"></path><path fill="none" stroke="#000000" d="M81.75,173.75C81.75,173.75,81.75,228.8345317542553,81.75,245.13395863075857" stroke-width="3" marker-end="url(#raphael-marker-endblock33)" style="-webkit-tap-highlight-color: rgba(0, 0, 0, 0);"></path><path fill="none" stroke="#000000" d="M81.75,285.625C81.75,285.625,81.75,323.82577085494995,81.75,337.12516031763516" stroke-width="3" marker-end="url(#raphael-marker-endblock33)" style="-webkit-tap-highlight-color: rgba(0, 0, 0, 0);"></path><path fill="none" stroke="#000000" d="M81.75,417.375C81.75,417.375,81.75,472.4595317542553,81.75,488.75895863075857" stroke-width="3" marker-end="url(#raphael-marker-endblock33)" style="-webkit-tap-highlight-color: rgba(0, 0, 0, 0);"></path><text x="86.75" y="427.375" text-anchor="start" font="10px &quot;Arial&quot;" stroke="none" fill="#000000" style="-webkit-tap-highlight-color: rgba(0, 0, 0, 0); text-anchor: start; font-style: normal; font-variant: normal; font-weight: normal; font-stretch: normal; font-size: 14px; line-height: normal; font-family: Arial;" font-size="14px"><tspan dy="5" style="-webkit-tap-highlight-color: rgba(0, 0, 0, 0);">yes</tspan></text><path fill="none" stroke="#000000" d="M157.5,379.5C157.5,379.5,199.25859838724136,379.5,213.24609765171772,379.5" stroke-width="3" marker-end="url(#raphael-marker-endblock33)" style="-webkit-tap-highlight-color: rgba(0, 0, 0, 0);"></path><text x="162.5" y="369.5" text-anchor="start" font="10px &quot;Arial&quot;" stroke="none" fill="#000000" style="-webkit-tap-highlight-color: rgba(0, 0, 0, 0); text-anchor: start; font-style: normal; font-variant: normal; font-weight: normal; font-stretch: normal; font-size: 14px; line-height: normal; font-family: Arial;" font-size="14px"><tspan dy="5" style="-webkit-tap-highlight-color: rgba(0, 0, 0, 0);">no</tspan></text><path fill="none" stroke="#000000" d="M289.25,397.5C289.25,397.5,289.25,422.5,289.25,422.5C289.25,422.5,393,422.5,393,422.5C393,422.5,393,112.75,393,112.75C393,112.75,81.75,112.75,81.75,112.75C81.75,112.75,81.75,126.05397129058838,81.75,133.2516276333481" stroke-width="3" marker-end="url(#raphael-marker-endblock33)" style="-webkit-tap-highlight-color: rgba(0, 0, 0, 0);"></path></svg>